<svg width="43" height="43" viewBox="0 0 43 43" fill="none" xmlns="http://www.w3.org/2000/svg">
<path d="M17.1563 35.7242L20.9108 24.0325H12.2604L25.8123 7.27582L22.0892 18.9934H30.7396L17.1563 35.7242Z" stroke="#1D1D1D" stroke-width="2" stroke-miterlimit="10" stroke-linecap="round" stroke-linejoin="round"/>
<path d="M39.932 38.0241C38.3458 39.6103 36.1112 40.1531 34.0816 39.652C33.5806 37.6225 34.1234 35.3879 35.7096 33.8017C37.2958 32.2155 39.5304 31.6727 41.5599 32.1737C42.061 34.2033 41.5182 36.4379 39.932 38.0241Z" stroke="#1D1D1D" stroke-width="2" stroke-miterlimit="10" stroke-linecap="round" stroke-linejoin="round"/>
<path d="M30.5005 41.7402C30.5005 41.7402 32.836 41.0858 34.0815 39.652" stroke="#1D1D1D" stroke-width="2" stroke-miterlimit="10" stroke-linecap="round" stroke-linejoin="round"/>
<path d="M3.06811 4.97591C4.65432 3.3897 6.88889 2.84691 8.91846 3.34796C9.41951 5.37752 8.87672 7.6121 7.2905 9.19831C5.70429 10.7845 3.46972 11.3273 1.44015 10.8263C0.939101 8.7967 1.48189 6.56212 3.06811 4.97591Z" stroke="#1D1D1D" stroke-width="2" stroke-miterlimit="10" stroke-linecap="round" stroke-linejoin="round"/>
<path d="M12.4996 1.25977C12.4996 1.25977 10.164 1.91417 8.91846 3.34795" stroke="#1D1D1D" stroke-width="2" stroke-miterlimit="10" stroke-linecap="round" stroke-linejoin="round"/>
<path d="M17.5225 1.65113C18.8083 1.39414 20.1386 1.25977 21.5 1.25977C32.6783 1.25977 41.7402 10.3217 41.7402 21.5C41.7402 23.4022 41.4782 25.2432 40.9869 26.9884" stroke="#1D1D1D" stroke-width="2" stroke-miterlimit="10" stroke-linecap="round" stroke-linejoin="round"/>
<path d="M2.01311 16.0108C1.52264 17.7568 1.25977 19.5977 1.25977 21.5C1.25977 32.6783 10.3217 41.7402 21.5 41.7402C22.8614 41.7402 24.1909 41.6058 25.4767 41.3489" stroke="#1D1D1D" stroke-width="2" stroke-miterlimit="10" stroke-linecap="round" stroke-linejoin="round"/>
</svg>
