<svg width="39" height="39" viewBox="0 0 39 39" fill="none" xmlns="http://www.w3.org/2000/svg">
<path d="M19.5 0.6875C15.7792 0.6875 12.142 1.79083 9.04834 3.85798C5.95464 5.92512 3.5434 8.86323 2.11952 12.3008C0.695651 15.7383 0.323101 19.5209 1.04899 23.1701C1.77487 26.8194 3.56659 30.1715 6.19756 32.8024C8.82854 35.4334 12.1806 37.2251 15.8299 37.951C19.4791 38.6769 23.2617 38.3044 26.6992 36.8805C30.1368 35.4566 33.0749 33.0454 35.142 29.9517C37.2092 26.858 38.3125 23.2208 38.3125 19.5C38.3125 14.5106 36.3305 9.72558 32.8025 6.19755C29.2744 2.66953 24.4894 0.6875 19.5 0.6875ZM19.5 35.625C16.3108 35.625 13.1932 34.6793 10.5414 32.9074C7.8897 31.1356 5.82291 28.6172 4.60245 25.6708C3.38199 22.7243 3.06266 19.4821 3.68485 16.3542C4.30703 13.2262 5.84279 10.353 8.09791 8.0979C10.353 5.84278 13.2262 4.30702 16.3542 3.68484C19.4821 3.06265 22.7243 3.38198 25.6708 4.60244C28.6172 5.82291 31.1356 7.88969 32.9075 10.5414C34.6793 13.1932 35.625 16.3108 35.625 19.5C35.625 23.7766 33.9261 27.8781 30.9021 30.9021C27.8781 33.9261 23.7766 35.625 19.5 35.625Z" fill="#1D1D1D"/>
<path d="M25.7485 11.5181L10.9672 17.0678C10.7207 17.1691 10.5099 17.3413 10.3616 17.5626C10.2132 17.7839 10.134 18.0443 10.134 18.3108C10.134 18.5772 10.2132 18.8376 10.3616 19.059C10.5099 19.2803 10.7207 19.4525 10.9672 19.5538L16.8797 22.1875L19.5 28.0866C19.6029 28.3294 19.775 28.5367 19.9948 28.6824C20.2146 28.8282 20.4725 28.906 20.7363 28.9062C21.0039 28.8991 21.2633 28.8121 21.4812 28.6564C21.699 28.5008 21.8655 28.2837 21.9591 28.0328L27.5088 13.2516C27.5997 13.0096 27.6189 12.7465 27.5641 12.4938C27.5093 12.2412 27.3828 12.0097 27.1997 11.8272C27.0149 11.6389 26.7787 11.5091 26.5206 11.4542C26.2625 11.3992 25.994 11.4215 25.7485 11.5181ZM20.5885 23.9612L19.1372 20.5616C19.0015 20.2484 18.7517 19.9985 18.4385 19.8628L15.0388 18.4116L23.921 15.0791L20.5885 23.9612Z" fill="#1D1D1D"/>
</svg>
