<svg width="34" height="42" viewBox="0 0 34 42" fill="none" xmlns="http://www.w3.org/2000/svg">
<path d="M16.8611 41.5489C16.5928 41.5489 16.3349 41.4766 16.1079 41.3528C11.7846 38.9384 8.2558 35.7604 5.63501 31.9221C3.53012 28.8473 2.00305 25.3495 1.08474 21.5318C-0.473293 15.0417 0.269609 9.87236 0.300563 9.66599C0.403744 9.01595 0.899012 8.48973 1.54905 8.37623L2.46736 8.21114C7.60576 7.2722 12.2695 4.59982 15.6745 0.627356C16.2317 -0.0226829 17.2119 -0.0949098 17.8619 0.462267C17.9238 0.513857 17.9754 0.565448 18.027 0.627356C21.432 4.5895 26.0958 7.2722 31.2342 8.21114L32.1525 8.37623C32.8025 8.48973 33.3081 9.01595 33.4113 9.66599C33.4422 9.88267 34.1851 15.052 32.6374 21.5318C31.7191 25.3598 30.192 28.8576 28.0872 31.9221C25.456 35.7707 21.9376 38.9384 17.6143 41.3528C17.3873 41.487 17.1294 41.5489 16.8611 41.5489ZM3.26185 11.2034C3.06581 14.4639 3.35471 17.7451 4.11825 20.923C4.95402 24.3589 6.33664 27.4956 8.22485 30.2402C10.4226 33.4389 13.322 36.1215 16.8611 38.2264C20.4208 36.1112 23.3408 33.4079 25.5386 30.1783C27.4268 27.4234 28.7991 24.2661 29.6349 20.8095C30.3881 17.6625 30.6667 14.4329 30.4706 11.2034C25.3013 10.2129 20.555 7.6746 16.8714 3.91882C13.1672 7.66429 8.43121 10.2025 3.26185 11.2034Z" fill="#1D1D1D"/>
<path d="M16.7167 28.8679C16.304 28.8679 15.9119 28.7028 15.623 28.4139L9.83452 22.5945C9.23607 21.9858 9.23607 21.0056 9.84484 20.4071C10.4536 19.8087 11.4338 19.8087 12.0323 20.4174L16.273 24.6788L21.4217 13.8345C21.7932 13.0606 22.7115 12.7305 23.4853 13.1019C24.2592 13.4734 24.5894 14.3917 24.2179 15.1655L18.1303 28.0012C17.9136 28.4552 17.4905 28.7751 16.9953 28.8679C16.8818 28.8576 16.7992 28.8679 16.7167 28.8679Z" fill="#1D1D1D"/>
</svg>
